<?xml version="1.0" encoding="UTF-8"?>
<!-- Generator: Adobe Illustrator 16.0.0, SVG Export Plug-In . SVG Version: 6.00 Build 0)  -->
<!DOCTYPE svg PUBLIC "-//W3C//DTD SVG 1.1//EN" "http://www.w3.org/Graphics/SVG/1.1/DTD/svg11.dtd">
<svg version="1.1" id="Layer_1" xmlns="http://www.w3.org/2000/svg" xmlns:xlink="http://www.w3.org/1999/xlink" x="0px" y="0px" width="98px" height="19px" viewBox="0 0 98 19" enable-background="new 0 0 98 19" xml:space="preserve">
<path fill="#BDBDBD" d="M83.576,2.058c4.23,3.23,8.682,6.152,12.775,9.56c-0.041-0.572-0.083-1.146-0.126-1.72  c-3.657,4.038-10.227,3.627-14.685,6.485c-1.177,0.754-0.218,2.68,0.965,1.922c4.647-2.977,11.275-2.535,15.146-6.811  c0.521-0.575,0.44-1.25-0.126-1.72c-4.094-3.409-8.544-6.333-12.776-9.56C83.654-0.626,82.49,1.227,83.576,2.058L83.576,2.058z"/>
<path fill="#BDBDBD" d="M19.751,8.356c4.024,0.408,7.771-1.551,11.737-1.857c1.772-0.136,1.93-2.95,0.131-2.811  c-3.938,0.301-7.774,2.255-11.739,1.856C18.097,5.368,17.971,8.18,19.751,8.356L19.751,8.356z"/>
<path fill="#BDBDBD" d="M42.892,5.172c2.824,0.335,5.709-0.343,8.494,0.346c1.726,0.431,2.585-2.265,0.844-2.697  c-3.051-0.756-6.121-0.092-9.205-0.461C41.246,2.148,41.123,4.961,42.892,5.172L42.892,5.172z"/>
<path fill="#BDBDBD" d="M62.642,6.71c4.474,1.593,9.229,1.885,13.856,2.841c1.735,0.357,2.598-2.336,0.844-2.7  c-4.628-0.957-9.385-1.247-13.852-2.84C61.805,3.414,60.965,6.111,62.642,6.71L62.642,6.71z"/>
<path fill="#BDBDBD" d="M1.912,15.54c2.761-0.689,5.217-2.346,8.065-2.691c1.766-0.209,1.613-3.034-0.168-2.821  c-3.121,0.376-5.756,2.085-8.77,2.834C-0.698,13.296,0.184,15.97,1.912,15.54L1.912,15.54z"/>
</svg>